{"title":"The Ghost of Frankenstein(1949)MPEG-4","uid":15039649,"size":681644065,"categoryP":"video","categoryS":"movies","magnet":"?xt=urn:btih:ddb1c6f22676d80a71130dc9af15a962ce13f2b6&amp;dn=The+Ghost+of+Frankenstein%281949%29MPEG-4&amp;tr=udp%3A%2F%2Ftracker.leechers-paradise.org%3A6969&amp;tr=udp%3A%2F%2Fzer0day.ch%3A1337&amp;tr=udp%3A%2F%2Fopen.demonii.com%3A1337&amp;tr=udp%3A%2F%2Ftracker.coppersurfer.tk%3A6969&amp;tr=udp%3A%2F%2Fexodus.desync.com%3A6969","seeders":2,"leechers":1,"uploader":"dascuba","files":1,"time":1466610604,"description":"The Ghost of Frankenstein (1942)\r\nApproved | 1h 7min | Drama, Horror, Sci-Fi | 13 March 1942 (USA)\r\nWhen Ygor brings the Monster to Dr. Ludwig Frankenstein for care, Ludwig gets the idea of replacing the Monster's current criminal brain with a normal one.\r\nDirector: Erle C. Kenton\r\nWriters: Scott Darling (screenplay) (as W. Scott Darling), Eric Taylor (original story)\r\nStars: Cedric Hardwicke, Lon Chaney Jr., Ralph Bellamy |\r\n\r\nGeneral\r\nComplete name                            : Ghost of FrankensteinFRANKENSTEIN_Title2.mp4\r\nFormat                                   : MPEG-4\r\nFormat profile                           : Base Media\r\nCodec ID                                 : isom (isom/iso2/avc1/mp41)\r\nFile size                                : 650 MiB\r\nDuration                                 : 1h 7mn\r\nOverall bit rate                         : 1 349 Kbps\r\nMovie name                               : FRANKENSTEIN\r\nGenre                                    : Horror\r\nWriting application                      : Lavf54.6.100\r\n\r\nVideo\r\nID                                       : 1\r\nFormat                                   : AVC\r\nFormat/Info                              : Advanced Video Codec\r\nFormat profile                           :   \r\nFormat settings, CABAC                   : No\r\nFormat settings, ReFrames                : 6 frames\r\nFormat settings, GOP                     : M=1, N=60\r\nCodec ID                                 : avc1\r\nCodec ID/Info                            : Advanced Video Coding\r\nDuration                                 : 1h 7mn\r\nBit rate                                 : 1 208 Kbps\r\nWidth                                    : 720 pixels\r\nHeight                                   : 540 pixels\r\nDisplay aspect ratio                     : 4:3\r\nFrame rate mode                          : Constant\r\nFrame rate                               : 29.970 (30000/1001) fps\r\nColor space                              : YUV\r\nChroma subsampling                       : 4:2:0\r\nBit depth                                : 8 bits\r\nScan type                                : Progressive\r\nBits/(Pixel*Frame)                       : 0.104\r\nStream size                              : 582 MiB (90%)\r\n\r\nAudio\r\nID                                       : 2\r\nFormat                                   : AAC\r\nFormat/Info                              : Advanced Audio Codec\r\nFormat profile                           : LC\r\nCodec ID                                 : 40\r\nDuration                                 : 1h 7mn\r\nBit rate mode                            : Constant\r\nBit rate                                 : 132 Kbps\r\nChannel(s)                               : 2 channels\r\nChannel positions                        : Front: L R\r\nSampling rate                            : 44.1 KHz\r\nFrame rate                               : 43.066 fps (1024 spf)\r\nCompression mode                         : Lossy\r\nStream size                              : 64.6 MiB (10%)\r\nDefault                                  : Yes\r\nAlternate group                          : 1","torrent":{"xt":"urn:btih:ddb1c6f22676d80a71130dc9af15a962ce13f2b6","amp;dn":"The+Ghost+of+Frankenstein%281949%29MPEG-4","amp;tr":["udp%3A%2F%2Ftracker.leechers-paradise.org%3A6969","udp%3A%2F%2Fzer0day.ch%3A1337","udp%3A%2F%2Fopen.demonii.com%3A1337","udp%3A%2F%2Ftracker.coppersurfer.tk%3A6969","udp%3A%2F%2Fexodus.desync.com%3A6969"],"infoHash":"ddb1c6f22676d80a71130dc9af15a962ce13f2b6","infoHashBuffer":{"type":"Buffer","data":[221,177,198,242,38,118,216,10,113,19,13,201,175,21,169,98,206,19,242,182]},"announce":[],"urlList":[]}}